<svg class="mkdf-team-animated-svg" xmlns="http://www.w3.org/2000/svg" width="100" height="100"><path d="M40.904 72.352c-2.592.423-3.041.048-2.409-2.41 1.148-4.464 2.38-8.907 3.642-13.341.255-.896.652-1.831 1.235-2.542 4.179-5.102 5.02-11.33 5.792-17.509.334-2.677 1.109-4.981 2.733-7.067 4.597-5.905 7.009-12.794 8.894-19.91.24-.905.448-1.882.363-2.796-.168-1.798-1.88-2.448-3.269-1.284-.501.42-.907 1.013-1.211 1.602-3.475 6.755-6.824 13.557-8.553 21.032-.425 1.839-.859 3.807-1.853 5.352-1.385 2.154-3.202 3.966-1.852 6.832.165.349-.257 1.026-.496 1.506-1.53 3.066-2.24 6.389-3.05 9.679-1.526 6.19-3.125 12.36-5.198 18.392-1.626 4.73-5.753 6.839-10.55 5.334a14.628 14.628 0 00-6.828-.488c-4.86.789-9.441 2.451-13.804 4.714-.936.486-2.26.935-1.94 2.256.311 1.289 1.671 1.139 2.744 1.186.404.018.824.016 1.216-.072 4.896-1.101 9.939-1.325 14.818-2.558 3.612-.914 4.389-.165 4.053 3.542-1.054 11.598-1.819 23.213-2.492 34.84-.244 4.206.312 8.366-.06 12.544-.214 2.405.633 4.118 1.848 3.885 2.026-.389 1.626-2.237 1.783-3.624 1.612-14.29 4.356-28.399 6.801-42.555.602-3.485 1.666-6.84 2.755-10.198.695-2.143 1.94-3.464 4.09-4.092 2.304-.673 4.569-1.478 6.851-2.224-2.183-1.228-4.092-.346-6.053-.026zM59.01 8.347c-1.485 5.727-3.078 11.44-6.455 16.427.017-3.041 4.389-14.455 6.455-16.427zM15.035 78.415c1.859-1.482 3.356-1.357 5.623-1.104-1.983 1.285-3.438 1.392-5.623 1.104zm9.909 45.634c0-4.035-.29-8.097.086-12.096.343-3.643.623-7.271.53-10.916-.159-6.243.498-12.401 1.581-18.535.734-4.157.907-4.358 5.977-4.861-2.743 15.507-6.199 30.753-8.174 46.408zm92.537-113.066c-.114-.74-.855-.997-1.529-1.128-2.318-.449-4.473-.105-6.729.75-6.659 2.523-12.998 6.096-20.339 6.53-.465.027-1.051.401-1.33.792-1.344 1.884-3.417 2.658-5.374 3.527-6.334 2.816-12.205 6.462-18.217 9.864-4.684 2.65-8.744 6.063-12.006 10.217-5.399 6.877-5.944 13.981-1.353 18.965 3.774 4.096 8.736 6.863 14.712 6.86 2.321-.001 4.615-.133 6.78-1.059 1.669-.714 2.981-1.688 2.508-4.491-1.544 1.68-2.821 2.785-4.673 2.988-5.593.611-10.713-.096-15.249-3.92-5.233-4.412-6.274-9.561-2.62-15.41 1.958-3.135 4.366-5.984 7.331-8.105 8.156-5.835 16.882-10.719 27.076-15.305-1.333 4.818-2.495 8.668-3.184 12.633-1.394 8.013-3.939 15.759-5.645 23.716-1.587 7.399-1.919 15.06-4.601 22.238-.471 1.262-.404 3.198.994 3.544 1.672.413 1.452-1.611 1.657-2.628 2.462-12.213 4.818-24.446 7.805-36.549 1.686-6.835 2.974-13.762 4.938-20.537.946-3.262 2.993-4.859 6.125-5.76 7.135-2.053 13.84-5.575 21.397-6.213.778-.067 1.689-.46 1.526-1.519zM90.537 75.736c-.226.09-.521.133-.71.297-2.049 1.786-2.765 4.194-3.066 6.771-.048.41.272.741.691.862.428.124.858-.013 1.037-.391 1.032-2.173 2.068-4.347 2.991-6.568.218-.526-.271-.963-.943-.971zm-38.35 4.114c-.94.39-3.253-.175-2.666 1.006.731 1.471-.873 2.619.522 4.109 1.637-.768 2.62-1.955 3.091-3.538.234-.79.054-1.992-.947-1.577z"/></svg>