<svg class="mkdf-team-animated-svg" xmlns="http://www.w3.org/2000/svg" width="180" height="100"><path d="M167.126 33.967c-.325-.27-.741-.527-1.147-.589-3.675-.561-7.297-1.713-11.092-1.019-.852.156-1.723.224-2.589.291a149.863 149.863 0 00-14.986 1.939c-7.867 1.414-15.71 2.971-23.54 4.578a379.613 379.613 0 00-36.352 9.381c-3.571 1.11-7.126 2.256-10.635 3.548-.559.206-1.223.467-1.677-.148-.343-.463-.075-1.007.098-1.496.783-2.213 1.565-4.426 2.367-6.632.136-.374.249-1.077.747-.851 1.195.542 1.359-.303 1.594-1.029.875-2.706 2.564-4.95 4.265-7.131 1.797-2.302 4.569-3.166 7.299-4.189-.858 2.241-1.938 4.268-3.07 6.265-.515.907-1.12 1.763-1.402 2.784-.145.525-.174 1.054.28 1.443.461.395.979.243 1.467.024 1.047-.47 1.912-1.185 2.726-1.984 1.656-1.628 3.332-3.234 5.214-5.057.076 1.04.087 1.715.196 2.375.032.196.311.449.52.499.399.096.674-.189.698-.565.102-1.622.82-2.99 1.655-4.331.279-.449.43-1.021-.1-1.402-.394-.284-.859-.084-1.209.183a15.96 15.96 0 00-1.584 1.352c-1.481 1.47-2.932 2.97-4.404 4.45-.756.76-1.526 1.513-2.971 1.792 1.475-2.78 2.785-5.225 4.069-7.683.376-.719.608-1.514-.096-2.16-.608-.558-1.312-.188-1.974-.006-1.304.358-2.339 1.409-3.615 1.61-.4-.454-.225-.821-.293-1.144-.292-1.377-1.003-1.743-2.191-1.111-.374.199-.745.48-.999.813-1.633 2.137-3.813 3.815-5.133 6.222-.683 1.246-1.84 2.071-3.041 2.797-.434.262-.915.65-1.387.118-.328-.37-.181-.842.026-1.223.705-1.297 1.44-2.576 2.171-3.858.253-.444.718-.949.149-1.361-.502-.364-.963.11-1.353.453-.735.645-1.199 1.475-1.615 2.345-1.541 3.219-3.109 6.42-5.782 8.905-1.428 1.328-2.825 2.706-4.976 2.96-.097-1.208.706-1.691 1.226-2.348 1.525-1.927 3.58-3.288 5.306-4.998.697-.691 1.325-1.492.839-2.537-.432-.931-1.383-.932-2.259-.972a17.896 17.896 0 00-5.679.643c-1.055.296-1.822.072-2.459-.876-1.065-1.585-2.212-3.117-3.341-4.659-.539-.736-.561-1.44.057-2.123.408-.452.822-.9 1.27-1.311 2.895-2.653 5.488-5.573 7.715-8.806a57.922 57.922 0 004.987-8.849c.62-1.361 1.01-2.963-.091-4.21-1.223-1.385-2.937-1.782-4.776-1.36a5.727 5.727 0 00-.99.323c-3.368 1.454-6.548 3.25-9.383 5.577-4.26 3.497-5.639 7.971-4.274 13.316.432 1.691.949 3.35 1.648 4.943.447 1.019.288 1.808-.476 2.594-.682.702-1.541 1.287-2.194 2.772 1.231-.872 2.047-1.353 2.744-1.967 1.015-.895 1.865-.768 2.646.241.956 1.238 1.884 2.498 2.82 3.75.33.441.429.826.352 1.155-8.738 2.907-17.139 6.447-25.077 11.115-2.625 1.544-3.761 2.87-3.628 4.002-.331.434-.501.946-.35 1.574.266 1.105 1.307 1.304 2.25 1.481.593.112 1.21.103 1.818.135 3.232.17 6.441-.145 9.601-.74 4.961-.933 10.036-1.842 14.1-5.048 1.921-1.516 3.486-2.086 5.574-.825.127.077.179.276.267.419-.018.565-.359.968-.71 1.351-1.654 1.807-3.187 3.762-4.134 5.985-1.279 2.999-3.604 4.542-6.422 5.668-.724.289-1.422.653-2.11 1.022-.689.369-1.367.764-2.02 1.193-.519.341-1.008.776-.8 1.489.2.688.831.851 1.445.908.69.064 1.397-.014 2.081.078.946.128 2.496-.633 2.676.64.157 1.111-1.475 1.231-2.416 1.539-10.417 3.408-20.565 7.551-30.876 11.25-2.437.874-4.713 2.21-7.032 3.394-.508.26-1.122.73-.78 1.444.264.55.9.428 1.404.33 3.121-.608 6.097-1.687 9.074-2.818-1.669-.402-3.17.57-4.797.389 4.342-2.135 8.942-3.461 13.384-5.198 6.803-2.66 13.73-4.966 20.622-7.376.925-.324 1.622-.456 2.073.706 1.748 4.502 6.676 4.726 9.692 1.448 1.617-1.757 2.84-3.74 3.982-5.779.831-1.486 1.974-2.315 3.585-2.74 4.035-1.063 8.04-2.254 12.147-3.008 7.267-1.336 14.598-2.24 21.941-3.037.749-.081 1.588-.409 2.423.297-1.121.299-2.124.567-3.128.833-3.781.998-7.643 1.718-11.318 3.082-1.066.395-3.063.354-2.867 1.667.243 1.625 2.142.865 3.345.895 2.652.067 5.308.021 8.167.021-.813.751-1.779.886-2.597 1.287-.935.458-1.901.858-2.815 1.353-.528.286-1.099.685-.955 1.407.174.875.959.9 1.646.957.429.036.872.003 1.299-.06 2.407-.354 4.811-.728 7.217-1.094.521-.079 1.062-.349 1.655-.003-.484.59-1.047.561-1.524.734-3.192 1.16-6.383 2.334-9.021 4.575-1.295 1.1-1.619 1.895-.744 3.136 1.011 1.434.487 2.122-.693 2.912-2.673 1.789-5.312 3.628-7.955 5.462-.436.302-1.034.547-.976 1.564 4.022-1.913 7.594-4.046 10.907-6.578 1.613-1.233 1.691-1.878.495-3.47-.86-1.145-.417-1.658.521-2.255 1.842-1.172 3.757-2.187 5.829-2.886 2.223-.749 4.302-1.867 6.574-2.502.719-.201 1.579-.596 1.346-1.609-.189-.823-.994-.869-1.688-.942-1.933-.203-3.807.198-5.689.555-1.642.311-3.292.582-4.938.871l-.138-.551c1.361-.503 2.714-1.027 4.084-1.502.997-.346 1.973-.719 2.66-1.561.498-.611.339-1.191-.363-1.46-.552-.211-1.195-.345-1.777-.291-2.16.204-4.352.001-6.488.547-.67.171-1.416.352-2.367-.184.61-.238.915-.397 1.238-.476 4.559-1.114 9.126-2.197 13.68-3.33 2.275-.566 4.533-1.203 6.788-1.843.5-.142 1.053-.439.937-1.066-.111-.602-.716-.722-1.241-.738-2.346-.071-4.694-.125-7.034.155-5.089.609-10.177 1.221-15.267 1.821-.317.037-.676.139-1.051-.317 1.232-.694 2.528-1.123 3.841-1.508 5.169-1.516 10.328-3.068 15.511-4.537 12.46-3.532 24.901-7.131 37.58-9.842 7.735-1.655 15.43-3.497 23.225-4.872a15.347 15.347 0 002.995-.859c.627-.248.582-.833.091-1.242zm-92.042-3.743c-.102 1.242-.838 1.964-1.814 2.492.169-1.187.763-2.026 1.814-2.492zm-29.663-2.721c-1.353-.307-1.451-2.023-1.839-3.234a17.21 17.21 0 01-.814-5.127c-.03-2.964 1.039-5.25 3.268-7.318 2.657-2.464 5.543-4.445 8.798-5.953.79-.366 1.574-.747 2.479-.715 2.743-.021 3.566 1.307 2.431 3.831-2.769 6.158-6.434 11.707-11.202 16.499-.892.897-1.818 2.313-3.121 2.017zm2.052 20.006c-4.358 2.671-9.098 4.292-14.163 4.95-2.582.336-5.17.625-7.754.949a7.57 7.57 0 01-2.382-.084 5.432 5.432 0 00-.69-.419c-.073-.836.585-1.784 1.754-2.789.092-.056.176-.119.27-.174 4.935-2.868 9.978-5.509 15.181-7.86a214.042 214.042 0 016.949-2.683c.801-.255 1.595-.528 2.406-.756 1.525-.429 1.86-.15 2.071 1.395.448 3.298-.863 5.767-3.642 7.471zm5.537-4.586c-.146-1.349-.116-2.147-.333-2.87-.705-2.346.237-2.54 2.012-2.93.335-.074.684-.155 1.022-.138.903.046 2.168-.558 2.602.438.484 1.111-.942 1.423-1.569 2.04-1.09 1.07-2.239 2.081-3.734 3.46zm14.218-3.643c-1.433 4.736-2.895 8.98-4.628 13.13-.275.657-.724 1.225-1.4 1.479-3.797 1.428-7.605 2.825-11.503 4.268.212-4.779 10.814-16.246 17.531-18.877zm-22.26 23.994c-.167.62-.549 1.111-1.215 1.196-.975.124-1.961.384-3.278.075 1.216-1.196 2.501-1.656 3.743-2.13.693-.265.918.235.75.859zm6.627 8.836c-1.871 1.187-3.527.869-5.188-.693-1.25-1.175-1.193-2.407.394-3.03 3.027-1.19 6.145-2.149 9.225-3.204l.494.596c-1.193 2.438-2.53 4.812-4.925 6.331zm5.734-9.932c-2.875.59-5.753 1.165-8.636 1.714-.578.11-1.273.257-1.665-.345-.382-.586.03-1.16.284-1.699.307-.65.812-1.103 1.468-1.399 3.78-1.704 7.623-3.247 11.588-4.467.131-.04.312.082.633.178-.317 1.774-1.157 3.347-1.986 4.919-.347.656-.997.957-1.686 1.099zm103.42-27.131c-18.288 3.404-36.287 7.992-54.176 13.053-11.032 3.121-21.955 6.587-32.886 10.035-3.229 1.019-6.503 1.892-9.759 2.824-.907.26-1.818.53-3.142.426.746-1.905 1.378-3.509 2.002-5.117.374-.965 1.127-1.542 2.037-1.898 1.536-.599 3.075-1.206 4.65-1.685 8.637-2.628 17.268-5.265 25.993-7.612 11.501-3.093 23.178-5.298 34.841-7.606 2.895-.573 5.76-1.389 8.682-1.713 7.32-.811 14.577-2.424 22.011-1.924.66.045 1.38-.211 2.105.422-.663.732-1.585.651-2.358.795z"/><path d="M121.061 26.955c1.126-.042 1.875-.72 2.759-1.047.911-.337 1.256-.073 1.118.965-.211 1.587.074 1.815 1.545 1.259a17.633 17.633 0 004.129-2.197c1.078-.779 1.435-1.65.588-2.865-.594-.852-1.08-1.795-1.198-2.859-.097-.874-.2-1.877.76-2.292 1.116-.482 1.689.396 2.634 1.496-1.594-.195-2.52.038-2.17 1.558.441 1.915 1.331 2.671 2.917 2.343.568-.117 1.219-.593 1.554.245.256.642-.225 1.148-.605 1.623-.106.133-.25.32-.389.332-3.116.262-4.925 3.106-7.803 3.913-1.596.447-2.98.994-4.215-.588-.455-.583-1.073-.439-1.67-.221-.571.209-1.136.436-1.716.614-.664.204-1.421.489-1.916-.208-.529-.745.074-1.278.57-1.779.36-.364.853-.619.98-1.176-2.916-1.884-4.953-1.339-6.324 1.76-1.018 2.302-1.948 4.643-2.923 6.964-.232.551-.392 1.239-1.13 1.277-.788.041-.87-.721-1.152-1.226-.465-.831-.903-1.662-1.166-2.6-.33-1.177-1.172-1.438-2.227-.843-.603.34-1.182.728-1.745 1.132-.934.668-1.88 1.271-3.109 1.059-1.063-.183-1.757.638-2.633.962-1.312.484-2.02.025-2.124-1.349-.061-.806.113-1.572.578-2.228 1.68-2.373 3.448-4.48 6.745-4.738 2.228-.175 4.404-.96 6.615-1.418 1.796-.373 3.137-1.327 4.236-2.79 1.783-2.372 3.329-4.87 4.578-7.562 1.245-2.682 2.61-5.3 4.356-7.699.407-.558.842-1.102 1.315-1.604.236-.251.619-.379.953-.179.331.197.416.592.293.917-.213.562-.453 1.136-.798 1.622-3.133 4.411-5.306 9.361-7.911 14.067-.949 1.714-.731 2.094 1.23 2.18 2.223.096 4.171.481 4.471 3.18zm-12.523 7.039c.476-2.69 2.032-5.004 2.683-7.621-.964-.271-1.336.156-1.701.502-3.67 3.487-3.564 3.059-.982 7.119zM95.7 33.346c2.896-.83 3.967-2.269 3.935-5.105-1.936 1.211-3.166 2.715-3.935 5.105zm5.18-1.546c.903-.193 1.325-.765 1.866-1.148.341-.24.711-.547.487-1.041-.185-.408-.584-.602-1.008-.686-.476-.093-.833.157-1.045.545-.372.678-.544 1.404-.3 2.33zm5.893-4.463c-.477-.383-.908-.323-1.317-.253-.562.097-1.213.09-1.439.785-.039.12.056.344.161.44.58.531 1.217.508 1.851.103.348-.221.706-.458.744-1.075zM138.864 28.217c2.353-5.52 7.465-8.054 11.048-12.153-1.146-.781-2.025-.514-2.857-.059-2.921 1.599-5.55 3.578-7.674 6.166-.966 1.177-1.432 2.592-1.507 4.095-.137 2.731 1.57 4.682 4.286 4.875 1.732.123 3.469.127 5.184-.298.734-.182 1.477-.535 2.276-.244.183.782-.477.837-.893 1.001-2.119.837-4.294 1.348-6.609 1.202-3.857-.242-6.356-3.223-5.826-7.067.256-1.853 1.034-3.485 2.207-4.936 2.733-3.38 6.488-5.149 10.436-6.6.758-.278 1.592-.327 2.135.427.505.701.416 1.538-.007 2.224a7.411 7.411 0 01-1.522 1.762c-3.2 2.683-6.327 5.43-8.825 8.816-.305.41-.721.745-1.852.789z"/></svg>