<svg class="mkdf-team-animated-svg" xmlns="http://www.w3.org/2000/svg" width="100" height="100"><path d="M44.502 68.375c-1.786 1.33-2.76 2.552-3.564 3.924-3.327 5.678-7.695 10.547-11.913 15.548-2.699 3.2-5.705 6.055-8.71 8.942-2.386 2.291-5.084 4.113-7.821 5.906a7.264 7.264 0 01-1.884.87c-2.196.658-4.016-.414-4.429-2.676-.286-1.568-.21-3.172.067-4.745.57-3.229 1.261-6.415 2.672-9.424 1.183-2.524 1.709-5.283 2.48-7.952 2.882-9.978 7.066-19.362 12.738-28.075.648-.997 1.188-2.064 1.772-3.103 2.918-5.189 6.807-9.725 9.922-14.791 1.24-2.017 2.673-3.932 3.959-5.939 2.463-3.845 5.446-7.301 8.414-10.752 1.614-1.876 3.472-3.545 5.249-5.277 2.016-1.964 4.269-3.558 7.065-4.227 4.107-.982 6.605 1.187 6.168 5.404-.4 3.859-1.319 7.623-2.165 11.401-.23 1.027-.832 2.042-.259 3.351 1.152-.797 1.696-1.953 2.391-3.001 3.228-4.859 7.205-8.922 12.406-11.712 1.092-.586 2.039-.766 2.988.106.986.905.366 1.778-.087 2.677-1.842 3.652-4.316 6.845-6.838 10.053-3.672 4.672-6.956 9.646-10.513 14.412-2.014 2.699-4.313 5.167-6.16 8.016-2.007 3.096-3.841 6.237-5.141 9.707-1.007 2.687-2.259 5.281-3.707 7.947.713-.396 1.416-.811 2.141-1.182.45-.23.978-.376 1.41-.043.575.442.421 1.067.181 1.627a32.267 32.267 0 01-4.025 6.935c-1.182 1.546-2.396 3.099-3.105 5.415 2.332-.717 3.763-2.078 5.081-3.444 2.478-2.566 4.878-5.219 6.944-8.145.631-.894 1.22-1.84 2.309-2.238.232-.085.594-.015.813.119.273.168.273.549.113.795-.596.912-1.266 1.777-1.845 2.699-.387.616-.561 1.326.09 1.89.511.443 1.134.314 1.679.038 1.066-.54 2.052-1.204 2.922-2.034.48-.458.968-.952 2.387-.652-2.056 1.326-3.151 2.989-4.928 3.913-1.168.608-2.322 1.19-3.639.39-1.076-.653-1.864-.203-2.57.661-3.171 3.881-6.797 7.188-11.337 9.47-1.53.769-2.305 2.453-3.092 3.934-3.115 5.857-6.817 11.364-9.914 17.255-2.884 5.486-6.135 10.854-9.497 16.124-3.046 4.773-6.23 9.437-9.44 14.09-.322.466-.614 1.298-1.277.962-.887-.449-.236-1.196.022-1.788 1.399-3.205 3.509-5.978 5.413-8.875.544-.828 1.16-1.614 1.649-2.473 3.192-5.601 6.359-11.216 9.533-16.828.147-.259.234-.571.432-.779 4.36-4.58 5.822-10.787 8.989-16.037.555-.92.839-2.009 1.2-3.036.127-.362.299-.98.132-1.132-1.949-1.775-.182-2.84.681-4.14 1.537-2.314 2.997-4.68 4.482-7.028.474-.744.843-1.533.966-3.053zM7.896 97.742c0 .397-.012.794.002 1.191.099 2.934 1.261 3.624 3.714 2.154 1.105-.662 2.208-1.358 3.197-2.177 4.579-3.793 9.129-7.621 12.75-12.403.417-.551.883-1.079 1.393-1.544 3.911-3.568 6.873-7.938 9.789-12.258 2.767-4.101 5.607-8.167 8.362-12.278 2.172-3.242 4.223-6.452 5.517-10.134.395-1.122.821-2.247 1.378-3.294 4.267-8.031 7.009-16.625 9.321-25.364.937-3.541 1.875-7.119 1.738-10.839-.076-2.06-.682-2.433-2.714-2.721-2.593-.366-4.415 1-6.102 2.511-6.004 5.376-11.084 11.577-15.729 18.138-.856 1.209-1.397 2.641-2.258 3.845a319.622 319.622 0 00-13.221 20.098C20.164 60.69 16.41 69.171 13.365 78.02c-1.584 4.603-2.36 9.449-4.295 13.933-.803 1.861-1.206 3.772-1.174 5.789zM80.817 13.51c-2.3-.21-3.423.832-4.432 1.871-4.132 4.255-8.469 8.343-11.176 13.774-.837 1.679-1.882 3.273-2.982 4.797-1.908 2.645-2.538 5.711-3.152 8.846 7.049-7.924 12.581-16.988 19.406-25.051.928-1.097 1.428-2.556 2.336-4.237zM50.806 67.048c-.91-.782-1.318-.153-1.589.289-1.945 3.181-4.534 6.03-5.213 9.889 2.005-3.579 4.394-6.896 6.802-10.178zM85.303 58.892c-2.576 2.14-5.128 4.31-7.738 6.408-1.622 1.304-3.344 2.482-4.998 3.747-1.437 1.1-2.995 1.939-4.746 2.41-.698.188-1.41.272-1.925-.351-.389-.47-.746-1.22.16-1.382 5.699-1.017 9.327-5.414 13.8-8.409 1.648-1.103 3.237-2.233 5.447-2.423zM93.992 67.4c-1.637-1.859-1.637-1.859-1.33-3.854 1.127.975 1.391 2.046 1.33 3.854z"/></svg>