<svg class="mkdf-team-animated-svg" xmlns="http://www.w3.org/2000/svg" width="100" height="100"><path d="M54.245 36.17c3.366-1.359 6.297-2.613 9.481-3.111 1.508-.236 3.01-.304 4.505-.153 2.906.293 3.715 2.166 1.976 4.676-1.876 2.709-4.089 5.173-6.685 7.183-3.639 2.818-7.317 5.636-11.936 6.79-1.985.496-3.971.883-6.013 1.055-2.771.233-3.498.05-5.84-1.363-1.524-.919-3.057-1.8-4.289-3.111-.855-.91-1.847-.86-2.939-.504-3.131 1.021-6.361 1.605-9.612 2.059-4.328.605-8.513-.176-12.501-1.77-3.966-1.585-5.766-4.832-5.885-9.003-.119-4.136 1.317-7.85 3.501-11.269 3.94-6.166 8.46-11.884 14.503-16.109 5.665-3.961 11.51-7.683 18.287-9.587 1.891-.531 3.818-.924 5.751-1.016 5.92-.282 12.016 2.891 12.358 10.946.17 4.004.053 7.982-1.054 11.873-.492 1.728-.739 3.449-.194 5.236.434 1.422-.083 2.592-1.209 3.544-1.001.85-2.006 1.722-2.205 3.634zM19.768 48.31c4.294.013 7.863-.598 11.344-1.731 2.754-.896 2.71-.915 2.706-3.875-.009-7.505 3.08-13.138 9.981-16.491 3.275-1.591 6.574-1.947 10.038-.684 1.705.621 1.942.542 2.418-1.267 1.222-4.651 2.042-9.352 1.091-14.182-.898-4.561-4.249-7.417-8.924-7.596-2.683-.103-5.28.259-7.866 1.041-4.293 1.298-8.065 3.55-11.906 5.793-8.164 4.766-14.535 11.236-19.427 19.25-1.778 2.913-2.944 5.963-3.14 9.469-.323 5.75 3.285 8.55 7.717 9.531 2.154.478 4.354.865 5.968.742zm30.185-22.38c-.48.054-1.307.021-2.053.252-5.918 1.836-10.484 5.098-11.926 11.562-.231 1.036-.47 2.071-.642 3.118-.114.692-.225 1.416-.14 2.1.13 1.039.744 1.596 1.863 1.232a7.882 7.882 0 001.215-.53 75.612 75.612 0 0011.747-7.686c.343-.273.942-.658.761-.995-.851-1.586.412-1.713 1.326-2.128 1.634-.742 3.168-3.142 2.795-4.64-.491-1.973-2.312-1.897-3.836-2.214-.257-.055-.529-.038-1.11-.071zm1.503 18.627c-.001 1.288.301 2.456 1.126 3.475.783.968 1.636 1.194 2.787.593 5.278-2.756 9.5-6.762 13.328-11.226.55-.642 1.255-1.507.793-2.381-.434-.821-1.515-.768-2.372-.931a1.566 1.566 0 00-.529-.003c-3.944.644-7.885 1.326-11.314 3.571-2.473 1.619-3.717 3.958-3.819 6.902zm.209-7.128c-.593-.377-.91-.178-1.174.03-4.054 3.188-8.367 5.96-12.986 8.268-1.27.634-1.258 1.236-.297 2.233 1.557 1.615 3.843 1.679 5.678 2.708.49.275 1.021-.108 1.38-.547 3.147-3.856 5.437-8.191 7.399-12.692zm-1.817 7.811c-1.637 1.84-3.088 3.3-3.626 5.55 2.385.333 4.341-.107 6.331-1.348-1.076-1.275-1.859-2.528-2.705-4.202zM77.342 41.513c3.112.584 5.34-1.078 7.619-2.592.547-.364.591-.832.186-1.355-.162-.209-.325-.431-.426-.673-.372-.896-.916-1.846.042-2.676.792-.686 2.466-.194 3.328.796.565.648.314 2.005 1.424 2.053 1.345.059 2.576-.589 3.72-1.289.929-.568 1.506-1.488 2.192-2.299.241-.286.574-.461.94-.29.377.175.407.537.31.902-.195.734-.84 1.659.201 2.085 1.056.432 1.502-.655 2.014-1.332 2.149-2.842 4.874-5.143 7.251-7.771.176-.195.388-.371.614-.504.541-.319 1.137-.658 1.715-.168.596.506.339 1.142.039 1.699-1.706 3.168-3.794 6.077-6.965 7.87-3.334 1.885-5.36 4.821-7.227 7.963-.173.292-.242.648-.338.98-.016.057.074.144.227.417 1.503-.38 2.837-1.19 4.097-2.13.944-.704 1.965-1.198 3.121-1.416.617-.116 1.316-.301 1.778.194 1.145 1.228 2.247.603 3.368.046 1.51-.749 3-1.539 4.519-2.268.467-.225 1.059-.458 1.475.049.498.607.023 1.176-.267 1.699-.239.432-.545 1.185-1.138.691-1.247-1.039-2.177-.142-3.131.371-1.097.59-2.198 1.149-3.37 1.573-1.05.38-2.089.584-2.991-.28-.738-.707-1.423-.458-2.173-.055-2.497 1.342-4.807 3.023-7.462 4.08-.794.316-1.162 1.06-1.566 1.75-3.051 5.207-6.4 10.224-9.786 15.214a176.367 176.367 0 01-5.574 7.782c-1.621 2.131-3.625 3.898-5.895 5.331-3.139 1.982-5.986 1.308-7.935-1.855a8.937 8.937 0 01-1.271-5.885c.98-7.677 3.977-14.294 10.344-19.093 3.329-2.509 7.216-3.294 11.193-3.844 1.004-.139 1.991.066 2.519 1.082.474.913.041 1.737-.459 2.485-.89 1.332-2.083 2.354-3.288 3.358-.742-.728-.196-1.116.09-1.487.432-.561.962-1.045 1.4-1.601.379-.481.837-1.012.556-1.674-.303-.714-1.034-.622-1.63-.588-3.624.208-6.975 1.293-9.921 3.423-6.467 4.675-9.06 11.363-9.699 19.022-.098 1.169.184 2.3.659 3.366 1.182 2.651 3.794 3.56 6.418 2.345 3.037-1.407 5.001-3.954 6.885-6.517 5.412-7.365 10.294-15.079 14.875-22.989 1.194-2.063 2.701-3.943 4.043-5.922.497-.733.923-1.515 1.402-2.261.415-.645.628-1.269.043-1.936-.644-.733-1.361-.729-2.139-.254-1.543.941-3.23 1.445-5.014 1.657-1.206.144-2.084.951-3.052 1.556-2.998 1.875-6.089 3.308-9.776 2.472-1.112-.252-2.066.391-3.069.707-1.036.327-2.057.567-3.106.064-.585-.281-1.098-.639-1.117-1.355-.02-.702.434-1.133 1-1.451.797-.447 1.666-.644 2.565-.522.845.115 1.211-.225 1.602-.979 1.173-2.26 3.082-3.603 5.628-3.984.822-.123 1.65-.112 2.163.647.551.814-.011 1.525-.404 2.205-.813 1.404-2.232 2.206-3.376 3.361zm-2.614-1.711c.094.483.374.773.876.801.993.055 3.808-2.047 4.062-3.024.103-.4-.062-.675-.421-.829-1.401-.601-4.612 1.573-4.517 3.052zm31.375-10.206c-1.206.472-1.682 1.142-2.383 2.39 1.28-.646 1.806-1.264 2.383-2.39zM70.882 41.727c-.391-.007-.727.147-.827.52-.084.311.186.506.472.447.233-.048.502-.203.632-.394.166-.244.028-.483-.277-.573zm16.26-5.539c-.074-.444-.354-.763-.822-.829-.308-.044-.458.212-.391.501.081.352.31.627.665.727.282.08.483-.059.548-.399zM125.5 37.612c-1.561.965-2.73.11-4.003-.033 1.131-1.662 1.515-1.664 4.003.033z"/></svg>